<svg width="26" height="27" viewBox="0 0 26 27" fill="none" xmlns="http://www.w3.org/2000/svg">
<path d="M20.2583 11.2608L13.7583 17.7608C13.5417 17.9775 13.325 18.0858 13 18.0858C12.675 18.0858 12.4583 17.9775 12.2417 17.7608L5.74166 11.2608C5.30832 10.8275 5.30832 10.1775 5.74166 9.74413C6.17499 9.3108 6.82499 9.3108 7.25832 9.74413L13 15.4858L18.7417 9.74413C19.175 9.3108 19.825 9.3108 20.2583 9.74413C20.6917 10.1775 20.6917 10.8275 20.2583 11.2608Z" fill="black"/>
<mask id="mask0_6_567" style="mask-type:luminance" maskUnits="userSpaceOnUse" x="5" y="9" width="16" height="10">
<path d="M20.2583 11.2608L13.7583 17.7608C13.5417 17.9775 13.325 18.0858 13 18.0858C12.675 18.0858 12.4583 17.9775 12.2417 17.7608L5.74166 11.2608C5.30832 10.8275 5.30832 10.1775 5.74166 9.74413C6.17499 9.3108 6.82499 9.3108 7.25832 9.74413L13 15.4858L18.7417 9.74413C19.175 9.3108 19.825 9.3108 20.2583 9.74413C20.6917 10.1775 20.6917 10.8275 20.2583 11.2608Z" fill="white"/>
</mask>
<g mask="url(#mask0_6_567)">
<rect y="0.752441" width="26" height="26" fill="#C7C4C0"/>
</g>
</svg>
