<svg width="33" height="33" viewBox="0 0 33 33" fill="none" xmlns="http://www.w3.org/2000/svg">
<circle cx="16.8242" cy="16.2197" r="16" fill="#8C817B" fill-opacity="0.1"/>
<path d="M18.0176 24.1664L12.8176 17.7664C12.6442 17.5531 12.5576 17.3397 12.5576 17.0197C12.5576 16.6997 12.6442 16.4864 12.8176 16.2731L18.0176 9.87307C18.3642 9.4464 18.8842 9.4464 19.2309 9.87307C19.5776 10.2997 19.5776 10.9397 19.2309 11.3664L14.6376 17.0197L19.2309 22.6731C19.5776 23.0997 19.5776 23.7397 19.2309 24.1664C18.8842 24.5931 18.3642 24.5931 18.0176 24.1664Z" fill="black"/>
<mask id="mask0_6_694" style="mask-type:luminance" maskUnits="userSpaceOnUse" x="12" y="9" width="8" height="16">
<path d="M18.0176 24.1664L12.8176 17.7664C12.6442 17.5531 12.5576 17.3397 12.5576 17.0197C12.5576 16.6997 12.6442 16.4864 12.8176 16.2731L18.0176 9.87307C18.3642 9.4464 18.8842 9.4464 19.2309 9.87307C19.5776 10.2997 19.5776 10.9397 19.2309 11.3664L14.6376 17.0197L19.2309 22.6731C19.5776 23.0997 19.5776 23.7397 19.2309 24.1664C18.8842 24.5931 18.3642 24.5931 18.0176 24.1664Z" fill="white"/>
</mask>
<g mask="url(#mask0_6_694)">
<rect x="26.4242" y="4.21973" width="25.6" height="20.8" transform="rotate(90 26.4242 4.21973)" fill="#B8B8B8"/>
</g>
</svg>
