<svg width="21" height="24" viewBox="0 0 21 24" fill="none" xmlns="http://www.w3.org/2000/svg">
<path d="M10.4375 23.4688C11.7609 23.4688 12.8437 22.3859 12.8437 21.0625H8.03125C8.03125 22.3859 9.11406 23.4688 10.4375 23.4688ZM17.6562 16.25V10.2344C17.6562 6.54078 15.6952 3.44875 12.2422 2.63063V1.8125C12.2422 0.813906 11.4361 0.0078125 10.4375 0.0078125C9.43891 0.0078125 8.63281 0.813906 8.63281 1.8125V2.63063C5.19187 3.44875 3.21875 6.52875 3.21875 10.2344V16.25L0.8125 18.6563V19.8594H20.0625V18.6563L17.6562 16.25ZM15.25 17.4531H5.625V10.2344C5.625 7.25063 7.44172 4.82031 10.4375 4.82031C13.4333 4.82031 15.25 7.25063 15.25 10.2344V17.4531Z" fill="#4B4948"/>
</svg>
