<svg width="20" height="19" viewBox="0 0 20 19" fill="none" xmlns="http://www.w3.org/2000/svg">
<path d="M17 3.5H14V2.5C14 1.96957 13.7893 1.46086 13.4142 1.08579C13.0391 0.710714 12.5304 0.5 12 0.5H8C7.46957 0.5 6.96086 0.710714 6.58579 1.08579C6.21071 1.46086 6 1.96957 6 2.5V3.5H3C2.20435 3.5 1.44129 3.81607 0.87868 4.37868C0.316071 4.94129 0 5.70435 0 6.5V15.5C0 16.2956 0.316071 17.0587 0.87868 17.6213C1.44129 18.1839 2.20435 18.5 3 18.5H17C17.7956 18.5 18.5587 18.1839 19.1213 17.6213C19.6839 17.0587 20 16.2956 20 15.5V6.5C20 5.70435 19.6839 4.94129 19.1213 4.37868C18.5587 3.81607 17.7956 3.5 17 3.5ZM8 2.5H12V3.5H8V2.5ZM18 15.5C18 15.7652 17.8946 16.0196 17.7071 16.2071C17.5196 16.3946 17.2652 16.5 17 16.5H3C2.73478 16.5 2.48043 16.3946 2.29289 16.2071C2.10536 16.0196 2 15.7652 2 15.5V10.5H6V11.5C6 11.7652 6.10536 12.0196 6.29289 12.2071C6.48043 12.3946 6.73478 12.5 7 12.5C7.26522 12.5 7.51957 12.3946 7.70711 12.2071C7.89464 12.0196 8 11.7652 8 11.5V10.5H12V11.5C12 11.7652 12.1054 12.0196 12.2929 12.2071C12.4804 12.3946 12.7348 12.5 13 12.5C13.2652 12.5 13.5196 12.3946 13.7071 12.2071C13.8946 12.0196 14 11.7652 14 11.5V10.5H18V15.5ZM18 8.5H2V6.5C2 6.23478 2.10536 5.98043 2.29289 5.79289C2.48043 5.60536 2.73478 5.5 3 5.5H17C17.2652 5.5 17.5196 5.60536 17.7071 5.79289C17.8946 5.98043 18 6.23478 18 6.5V8.5Z" fill="#303030"/>
</svg>
