<svg width="28" height="26" viewBox="0 0 28 26" fill="none" xmlns="http://www.w3.org/2000/svg">
<path d="M25.4473 3.14842C23.9628 1.65049 21.9951 0.736237 19.8995 0.570812C17.8039 0.405387 15.7187 0.999695 14.0204 2.24638C12.2386 0.912553 10.0209 0.30773 7.81387 0.553712C5.60681 0.799694 3.57432 1.87821 2.1257 3.57207C0.677073 5.26593 -0.0800771 7.44932 0.00671527 9.68255C0.0935077 11.9158 1.0178 14.033 2.59345 15.6078L11.2897 24.3744C12.0179 25.0957 12.9986 25.5 14.0204 25.5C15.0421 25.5 16.0228 25.0957 16.7511 24.3744L25.4473 15.6078C27.0823 13.9521 28 11.7125 28 9.37809C28 7.04369 27.0823 4.80412 25.4473 3.14842ZM23.4728 13.6628L14.7765 22.4153C14.6776 22.5159 14.5598 22.5957 14.43 22.6502C14.3002 22.7047 14.161 22.7327 14.0204 22.7327C13.8797 22.7327 13.7405 22.7047 13.6107 22.6502C13.4809 22.5957 13.3631 22.5159 13.2642 22.4153L4.56795 13.6205C3.46974 12.4906 2.85477 10.9728 2.85477 9.39219C2.85477 7.81156 3.46974 6.29378 4.56795 5.1639C5.68706 4.05184 7.19638 3.42829 8.76902 3.42829C10.3417 3.42829 11.851 4.05184 12.9701 5.1639C13.1003 5.296 13.2552 5.40086 13.4258 5.47241C13.5964 5.54397 13.7795 5.58081 13.9643 5.58081C14.1492 5.58081 14.3322 5.54397 14.5029 5.47241C14.6735 5.40086 14.8284 5.296 14.9586 5.1639C16.0777 4.05184 17.587 3.42829 19.1597 3.42829C20.7323 3.42829 22.2416 4.05184 23.3607 5.1639C24.474 6.27897 25.1092 7.78853 25.1301 9.36919C25.1511 10.9499 24.5561 12.4759 23.4728 13.6205V13.6628Z" fill="#EE5F40"/>
</svg>
