<svg width="20" height="25" viewBox="0 0 20 25" fill="none" xmlns="http://www.w3.org/2000/svg">
<path d="M10 0.833344C7.52467 0.833344 5.1507 1.81667 3.40036 3.56701C1.65002 5.31735 0.666687 7.69132 0.666687 10.1667C0.666687 16.4667 8.89169 23.5833 9.24169 23.8867C9.45301 24.0674 9.72194 24.1668 10 24.1668C10.2781 24.1668 10.547 24.0674 10.7584 23.8867C11.1667 23.5833 19.3334 16.4667 19.3334 10.1667C19.3334 7.69132 18.35 5.31735 16.5997 3.56701C14.8493 1.81667 12.4754 0.833344 10 0.833344V0.833344ZM10 21.425C7.51502 19.0917 3.00002 14.0633 3.00002 10.1667C3.00002 8.31016 3.73752 6.52968 5.05027 5.21693C6.36303 3.90417 8.14351 3.16668 10 3.16668C11.8565 3.16668 13.637 3.90417 14.9498 5.21693C16.2625 6.52968 17 8.31016 17 10.1667C17 14.0633 12.485 19.1033 10 21.425ZM10 5.50001C9.07704 5.50001 8.17479 5.77371 7.40736 6.28648C6.63993 6.79926 6.04179 7.5281 5.68858 8.38082C5.33537 9.23354 5.24296 10.1719 5.42302 11.0771C5.60309 11.9823 6.04754 12.8139 6.70019 13.4665C7.35283 14.1192 8.18435 14.5636 9.0896 14.7437C9.99484 14.9237 10.9332 14.8313 11.7859 14.4781C12.6386 14.1249 13.3674 13.5268 13.8802 12.7593C14.393 11.9919 14.6667 11.0897 14.6667 10.1667C14.6667 8.929 14.175 7.74201 13.2999 6.86684C12.4247 5.99168 11.2377 5.50001 10 5.50001ZM10 12.5C9.53853 12.5 9.08741 12.3632 8.70369 12.1068C8.31998 11.8504 8.02091 11.486 7.8443 11.0596C7.6677 10.6332 7.62149 10.1641 7.71152 9.71147C7.80155 9.25884 8.02378 8.84308 8.35011 8.51676C8.67643 8.19044 9.09219 7.96821 9.54481 7.87818C9.99743 7.78815 10.4666 7.83435 10.8929 8.01096C11.3193 8.18756 11.6837 8.48663 11.9401 8.87035C12.1965 9.25406 12.3334 9.70519 12.3334 10.1667C12.3334 10.7855 12.0875 11.379 11.6499 11.8166C11.2124 12.2542 10.6189 12.5 10 12.5Z" fill="#303030"/>
</svg>
