<svg width="41" height="41" viewBox="0 0 41 41" fill="none" xmlns="http://www.w3.org/2000/svg">
<path d="M18.0554 0.920164C19.5018 -0.20847 21.5305 -0.208471 22.9769 0.920163L26.3687 3.56687C26.9397 4.01238 27.6209 4.29454 28.3396 4.38323L32.6095 4.91012C34.4303 5.1348 35.8648 6.56933 36.0895 8.39014L36.6164 12.66C36.7051 13.3788 36.9873 14.06 37.4328 14.6309L40.0795 18.0227C41.2081 19.4691 41.2081 21.4979 40.0795 22.9442L37.4328 26.3361C36.9873 26.907 36.7051 27.5882 36.6164 28.3069L36.0895 32.5768C35.8648 34.3976 34.4303 35.8322 32.6095 36.0569L28.3396 36.5837C27.6209 36.6724 26.9397 36.9546 26.3687 37.4001L22.9769 40.0468C21.5305 41.1754 19.5018 41.1754 18.0554 40.0468L14.6636 37.4001C14.0926 36.9546 13.4114 36.6724 12.6927 36.5837L8.42281 36.0569C6.602 35.8322 5.16747 34.3976 4.94279 32.5768L4.4159 28.3069C4.32721 27.5882 4.04505 26.907 3.59954 26.3361L0.952833 22.9442C-0.1758 21.4979 -0.175802 19.4691 0.952832 18.0227L3.59954 14.6309C4.04505 14.06 4.32721 13.3788 4.4159 12.66L4.94279 8.39014C5.16747 6.56933 6.602 5.1348 8.42281 4.91012L12.6927 4.38323C13.4114 4.29454 14.0926 4.01238 14.6636 3.56687L18.0554 0.920164Z" fill="url(#paint0_linear_1_283)"/>
<defs>
<linearGradient id="paint0_linear_1_283" x1="18.0327" y1="65" x2="72.5326" y2="33.5" gradientUnits="userSpaceOnUse">
<stop stop-color="#FAA677"/>
<stop offset="1" stop-color="#FAA677" stop-opacity="0.47"/>
</linearGradient>
</defs>
</svg>
