<svg width="24" height="25" viewBox="0 0 24 25" fill="none" xmlns="http://www.w3.org/2000/svg">
<path d="M7.99999 11.5C7.80221 11.5 7.60887 11.5586 7.44442 11.6685C7.27997 11.7784 7.1518 11.9346 7.07611 12.1173C7.00042 12.3 6.98062 12.5011 7.0192 12.6951C7.05779 12.8891 7.15303 13.0673 7.29288 13.2071C7.43273 13.347 7.61092 13.4422 7.8049 13.4808C7.99888 13.5194 8.19995 13.4996 8.38267 13.4239C8.5654 13.3482 8.72158 13.22 8.83146 13.0556C8.94134 12.8911 8.99999 12.6978 8.99999 12.5C8.99999 12.2348 8.89463 11.9804 8.70709 11.7929C8.51956 11.6054 8.2652 11.5 7.99999 11.5ZM12 11.5C11.8022 11.5 11.6089 11.5586 11.4444 11.6685C11.28 11.7784 11.1518 11.9346 11.0761 12.1173C11.0004 12.3 10.9806 12.5011 11.0192 12.6951C11.0578 12.8891 11.153 13.0673 11.2929 13.2071C11.4327 13.347 11.6109 13.4422 11.8049 13.4808C11.9989 13.5194 12.1999 13.4996 12.3827 13.4239C12.5654 13.3482 12.7216 13.22 12.8315 13.0556C12.9413 12.8911 13 12.6978 13 12.5C13 12.2348 12.8946 11.9804 12.7071 11.7929C12.5196 11.6054 12.2652 11.5 12 11.5ZM16 11.5C15.8022 11.5 15.6089 11.5586 15.4444 11.6685C15.28 11.7784 15.1518 11.9346 15.0761 12.1173C15.0004 12.3 14.9806 12.5011 15.0192 12.6951C15.0578 12.8891 15.153 13.0673 15.2929 13.2071C15.4327 13.347 15.6109 13.4422 15.8049 13.4808C15.9989 13.5194 16.1999 13.4996 16.3827 13.4239C16.5654 13.3482 16.7216 13.22 16.8315 13.0556C16.9413 12.8911 17 12.6978 17 12.5C17 12.2348 16.8946 11.9804 16.7071 11.7929C16.5196 11.6054 16.2652 11.5 16 11.5ZM12 2.5C10.6868 2.5 9.38641 2.75866 8.17315 3.2612C6.9599 3.76375 5.85751 4.50035 4.92892 5.42893C3.05356 7.3043 1.99999 9.84784 1.99999 12.5C1.99125 14.8091 2.79078 17.0485 4.25999 18.83L2.25999 20.83C2.12123 20.9706 2.02723 21.1492 1.98986 21.3432C1.95249 21.5372 1.97341 21.7379 2.04999 21.92C2.13305 22.0999 2.26769 22.2511 2.43683 22.3544C2.60598 22.4577 2.80199 22.5083 2.99999 22.5H12C14.6522 22.5 17.1957 21.4464 19.0711 19.5711C20.9464 17.6957 22 15.1522 22 12.5C22 9.84784 20.9464 7.3043 19.0711 5.42893C17.1957 3.55357 14.6522 2.5 12 2.5ZM12 20.5H5.40999L6.33999 19.57C6.52624 19.3826 6.63078 19.1292 6.63078 18.865C6.63078 18.6008 6.52624 18.3474 6.33999 18.16C5.03057 16.852 4.21516 15.1305 4.03268 13.2888C3.8502 11.447 4.31193 9.59901 5.33922 8.05952C6.3665 6.52004 7.89578 5.38436 9.6665 4.84597C11.4372 4.30759 13.3398 4.3998 15.0502 5.10691C16.7606 5.81402 18.1728 7.09227 19.0464 8.72389C19.92 10.3555 20.2009 12.2395 19.8411 14.055C19.4814 15.8705 18.5033 17.505 17.0735 18.6802C15.6438 19.8554 13.8508 20.4985 12 20.5Z" fill="#303030"/>
</svg>
